# xmcd
#
# Track frame offsets:
#	150
#	14565
#	27961
#	41945
#	54862
#	68602
#	80944
#	95176
#	109508
#	123032
#	137670
#	151596
#
# Disc length: 2188 seconds
#
# Revision: 0
# Processed by: cddbd v1.5.2PL0 Copyright (c) Steve Scherf et al.
# Submitted via: EasyCDDAExtractor 16.0.6.1
#
DISCID=97088a0c
DTITLE=Χρηστάκης - Μεγάλες επιτυχίες-Χρηστάκης
DYEAR=1997
DGENRE=Ρεμπέτικη
TTITLE0=Έμαθα πως είσαι μάγκας
TTITLE1=Σε είδα στο Λυκαβητό
TTITLE2=Κάποια Θεσσαλονικιά
TTITLE3=Το ταβερνάκι
TTITLE4=Πήρα τον δρόμο τον στερνό
TTITLE5=Ρίξε κεραυνούς, χαλάζι
TTITLE6=Δεν σε θέλω πια
TTITLE7=Μανάκι μου, μανάκι μου
TTITLE8=Μπουζουκομανία
TTITLE9=Χαρτιά δεν ξαναπιάνω
TTITLE10=Έδιωξα τριαντάφυλλα
TTITLE11=Σε γελάσανε
EXTD=
EXTT0=
EXTT1=
EXTT2=
EXTT3=
EXTT4=
EXTT5=
EXTT6=
EXTT7=
EXTT8=
EXTT9=
EXTT10=
EXTT11=
PLAYORDER=
